<?xml version="1.0" encoding="UTF-8"?>
<svg version="1.1" xmlns="http://www.w3.org/2000/svg" width="180" height="180">
<path d="M0 0 C59.4 0 118.8 0 180 0 C180 59.4 180 118.8 180 180 C120.6 180 61.2 180 0 180 C0 120.6 0 61.2 0 0 Z " fill="#050608" transform="translate(0,0)"/>
<path d="M0 0 C9.02174845 7.2984299 14.52186835 16.71972821 16.75317383 28.07910156 C17.98865886 41.91653387 15.23756554 53.98493597 6.21411133 64.79785156 C-1.20906326 72.72379096 -10.43507532 77.04284528 -20.93432617 79.57910156 C-22.91432617 79.57910156 -24.89432617 79.57910156 -26.93432617 79.57910156 C-26.93432617 95.41910156 -26.93432617 111.25910156 -26.93432617 127.57910156 C-44.09794957 127.57910156 -59.91427611 121.97164537 -72.93432617 110.57910156 C-72.93432617 109.91910156 -72.93432617 109.25910156 -72.93432617 108.57910156 C-74.41932617 108.08410156 -74.41932617 108.08410156 -75.93432617 107.57910156 C-75.93432617 106.91910156 -75.93432617 106.25910156 -75.93432617 105.57910156 C-76.59432617 105.57910156 -77.25432617 105.57910156 -77.93432617 105.57910156 C-79.66268379 103.32079457 -81.25186393 101.07687961 -82.80932617 98.70410156 C-83.26186768 98.01517822 -83.71440918 97.32625488 -84.18066406 96.61645508 C-93.83748505 81.6074073 -97.40287313 63.49406565 -94.27807617 45.87988281 C-89.39405492 27.08061136 -79.32090213 12.05544084 -62.93432617 1.57910156 C-43.55537539 -9.67601787 -19.21783847 -14.4533494 0 0 Z " fill="#060708" transform="translate(128.934326171875,30.4208984375)"/>
<path d="M0 0 C9.02174845 7.2984299 14.52186835 16.71972821 16.75317383 28.07910156 C17.98865886 41.91653387 15.23756554 53.98493597 6.21411133 64.79785156 C-1.20906326 72.72379096 -10.43507532 77.04284528 -20.93432617 79.57910156 C-22.91432617 79.57910156 -24.89432617 79.57910156 -26.93432617 79.57910156 C-26.93432617 95.41910156 -26.93432617 111.25910156 -26.93432617 127.57910156 C-44.09794957 127.57910156 -59.91427611 121.97164537 -72.93432617 110.57910156 C-72.93432617 109.91910156 -72.93432617 109.25910156 -72.93432617 108.57910156 C-74.41932617 108.08410156 -74.41932617 108.08410156 -75.93432617 107.57910156 C-75.93432617 106.91910156 -75.93432617 106.25910156 -75.93432617 105.57910156 C-76.59432617 105.57910156 -77.25432617 105.57910156 -77.93432617 105.57910156 C-79.66268379 103.32079457 -81.25186393 101.07687961 -82.80932617 98.70410156 C-83.26186768 98.01517822 -83.71440918 97.32625488 -84.18066406 96.61645508 C-93.83748505 81.6074073 -97.40287313 63.49406565 -94.27807617 45.87988281 C-89.39405492 27.08061136 -79.32090213 12.05544084 -62.93432617 1.57910156 C-43.55537539 -9.67601787 -19.21783847 -14.4533494 0 0 Z M-71.93041992 21.11035156 C-75.54950298 25.56894901 -78.28194926 30.50211417 -80.93432617 35.57910156 C-81.46219727 36.49755859 -81.46219727 36.49755859 -82.00073242 37.43457031 C-85.07192135 44.48930972 -85.27162041 51.37698328 -85.24682617 58.95410156 C-85.26293945 59.93121094 -85.27905273 60.90832031 -85.2956543 61.91503906 C-85.30660737 78.38846758 -77.61315607 91.47355113 -66.62182617 103.26660156 C-58.55412105 111.04617436 -47.90549874 115.83676502 -36.93432617 117.57910156 C-36.76045151 111.88671254 -36.63387119 106.19588967 -36.54980469 100.50146484 C-36.51474036 98.56727147 -36.4670732 96.6332618 -36.40625 94.69970703 C-35.43146098 82.2526295 -35.43146098 82.2526295 -40.39916992 71.45410156 C-41.5752968 70.49299775 -42.75324819 69.53411453 -43.93432617 68.57910156 C-45.71901146 63.22504569 -45.97947164 56.78269963 -44.21557617 51.37597656 C-41.12764724 45.64836645 -37.12328718 42.86094416 -31.12182617 40.82910156 C-29.73995117 40.41660156 -28.35807617 40.00410156 -26.93432617 39.57910156 C-26.93432617 42.87910156 -26.93432617 46.17910156 -26.93432617 49.57910156 C-27.84182617 49.64097656 -28.74932617 49.70285156 -29.68432617 49.76660156 C-33.03351933 50.33562745 -33.03351933 50.33562745 -35.30932617 52.70410156 C-37.38372718 56.37419565 -37.51887981 58.41415691 -36.93432617 62.57910156 C-34.67553248 66.81938775 -34.67553248 66.81938775 -30.93432617 69.57910156 C-23.02729859 70.33156441 -16.77389088 69.67771712 -9.93432617 65.57910156 C-9.2459668 65.16660156 -8.55760742 64.75410156 -7.84838867 64.32910156 C-0.99491472 59.70760189 4.65530963 52.54231413 7.06567383 44.57910156 C8.26859154 34.94987476 8.40498144 25.16398713 2.88989258 16.87207031 C2.28790039 16.11539063 1.6859082 15.35871094 1.06567383 14.57910156 C0.47399414 13.83273438 -0.11768555 13.08636719 -0.72729492 12.31738281 C-6.97085231 5.35291983 -13.74927431 1.74005041 -23.11010742 1.13769531 C-43.2685068 0.44317532 -57.92740703 6.46263273 -71.93041992 21.11035156 Z " fill="#B66E4B" transform="translate(128.934326171875,30.4208984375)"/>
<path d="M0 0 C5.83164971 4.71769822 9.89833893 9.81100699 13.06567383 16.57910156 C13.40211914 17.29195312 13.73856445 18.00480469 14.08520508 18.73925781 C15.97739026 23.2234775 16.36308987 26.82044492 16.06567383 31.57910156 C15.09629883 31.86785156 14.12692383 32.15660156 13.12817383 32.45410156 C9.95903179 33.22124838 9.95903179 33.22124838 9.06567383 35.57910156 C9.72567383 35.90910156 10.38567383 36.23910156 11.06567383 36.57910156 C9.58067383 37.07410156 9.58067383 37.07410156 8.06567383 37.57910156 C7.95352539 36.47115234 7.95352539 36.47115234 7.83911133 35.34082031 C6.51816918 25.1488451 2.8831786 16.05190624 -4.94213867 9.08300781 C-15.50684649 1.10768917 -27.19954059 1.40189459 -39.93432617 2.57910156 C-52.46565716 4.62723308 -65.10751418 13.70976627 -72.93432617 23.57910156 C-75.46994386 27.47811686 -77.76140409 31.46816789 -79.93432617 35.57910156 C-80.46413086 36.49949219 -80.46413086 36.49949219 -81.00463867 37.43847656 C-84.07808791 44.51515799 -84.24397688 51.35857744 -84.18432617 58.95410156 C-84.19206055 59.93121094 -84.19979492 60.90832031 -84.20776367 61.91503906 C-84.19253736 67.64013399 -83.66045359 72.85128315 -82.26538086 78.40966797 C-81.90398107 80.77795597 -82.20031281 82.31857179 -82.93432617 84.57910156 C-82.27432617 84.90910156 -81.61432617 85.23910156 -80.93432617 85.57910156 C-81.42932617 86.56910156 -81.42932617 86.56910156 -81.93432617 87.57910156 C-83.58432617 87.24910156 -85.23432617 86.91910156 -86.93432617 86.57910156 C-86.93432617 85.91910156 -86.93432617 85.25910156 -86.93432617 84.57910156 C-87.59432617 84.24910156 -88.25432617 83.91910156 -88.93432617 83.57910156 C-90.509813 80.95329018 -90.93432617 79.70810369 -90.93432617 76.57910156 C-91.59432617 76.57910156 -92.25432617 76.57910156 -92.93432617 76.57910156 C-97.94490961 58.37099926 -94.60826592 41.38763363 -85.90307617 24.89941406 C-76.43033603 8.92356264 -60.92829328 -2.08912644 -43.18432617 -7.35839844 C-28.12060795 -10.5519067 -12.63272996 -9.50082187 0 0 Z " fill="#E2AE92" transform="translate(128.934326171875,30.4208984375)"/>
<path d="M0 0 C0 3.3 0 6.6 0 10 C-1.11375 10.433125 -2.2275 10.86625 -3.375 11.3125 C-7.17512334 12.69911119 -7.17512334 12.69911119 -9 16 C-9.46193077 20.98885232 -9.06738634 23.98880248 -6 28 C-2.93466836 29.53266582 0.26754272 29.10276471 3.625 29.0625 C4.33140625 29.05798828 5.0378125 29.05347656 5.765625 29.04882812 C7.51045275 29.03703875 9.255237 29.01910324 11 29 C11.33 30.32 11.66 31.64 12 33 C8.535 33.495 8.535 33.495 5 34 C5 34.66 5 35.32 5 36 C5 36.99 5 37.98 5 39 C3.515 38.505 3.515 38.505 2 38 C1.01 38 0.02 38 -1 38 C-1.66 38 -2.32 38 -3 38 C-3.15149298 41.62885324 -3.15149298 41.62885324 -2 45 C-2.99 45.66 -3.98 46.32 -5 47 C-4.01 47.66 -3.02 48.32 -2 49 C-2.33 49.66 -2.66 50.32 -3 51 C-2.34 51 -1.68 51 -1 51 C-1.33 53.31 -1.66 55.62 -2 58 C-2.66 58 -3.32 58 -4 58 C-4.33 57.34 -4.66 56.68 -5 56 C-6.32 56.66 -7.64 57.32 -9 58 C-10.14505701 55.70988597 -10.09761309 54.46975704 -10.0703125 51.9296875 C-9.71992925 41.16585579 -9.71992925 41.16585579 -14.5 32 C-15.1290625 31.46375 -15.758125 30.9275 -16.40625 30.375 C-18.76467669 28.34027893 -18.96901353 26.34745488 -19.23828125 23.328125 C-19.40148026 16.55966093 -19.19348535 12.407389 -15 7 C-10.54139501 2.43145681 -6.43211681 0 0 0 Z " fill="#C17D5B" transform="translate(102,70)"/>
<path d="M0 0 C0.33 0 0.66 0 1 0 C1.495 1.98 1.495 1.98 2 4 C2.391875 3.484375 2.78375 2.96875 3.1875 2.4375 C3.785625 1.963125 4.38375 1.48875 5 1 C7.6875 1.3125 7.6875 1.3125 10 2 C10.73713432 14.53128341 7.17487834 25.60056773 -0.8515625 35.21875 C-8.43591348 43.31678213 -19.17087811 49.06357798 -30.3203125 50.24609375 C-32.25 50.25 -32.25 50.25 -35 50 C-35 53.63 -35 57.26 -35 61 C-36.32 61.66 -37.64 62.32 -39 63 C-38.34 61.68 -37.68 60.36 -37 59 C-37.99 58.34 -38.98 57.68 -40 57 C-39.01 56.01 -38.02 55.02 -37 54 C-37.495 52.515 -37.495 52.515 -38 51 C-37.67 50.01 -37.34 49.02 -37 48 C-33.9375 46.8125 -33.9375 46.8125 -31 46 C-30.34 46.99 -29.68 47.98 -29 49 C-29.66 47.35 -30.32 45.7 -31 44 C-28.42786866 42.38050989 -27.32330841 41.95591249 -24.25 42.375 C-23.5075 42.58125 -22.765 42.7875 -22 43 C-22.66 41.35 -23.32 39.7 -24 38 C-23.01 37.62875 -22.02 37.2575 -21 36.875 C-11.8249092 32.87132401 -6.25087559 26.6146288 -1.875 17.7109375 C-0.75004171 14.22557564 -0.54174259 10.81762521 -0.375 7.1875 C-0.33632812 6.49462891 -0.29765625 5.80175781 -0.2578125 5.08789062 C-0.16426432 3.39232985 -0.08107636 1.69620288 0 0 Z " fill="#C07752" transform="translate(136,60)"/>
<path d="M0 0 C16.2572989 -0.82945403 28.86937753 1.0571286 41.43359375 12.31640625 C45.13523318 16.18707031 47.73639647 20.16303667 50 25 C50.33644531 25.71285156 50.67289063 26.42570312 51.01953125 27.16015625 C52.91171643 31.64437593 53.29741604 35.24134336 53 40 C52.030625 40.28875 51.06125 40.5775 50.0625 40.875 C46.89335797 41.64214682 46.89335797 41.64214682 46 44 C46.99 44.495 46.99 44.495 48 45 C47.01 45.33 46.02 45.66 45 46 C44.92523438 45.26136719 44.85046875 44.52273437 44.7734375 43.76171875 C43.44170259 33.48646997 39.75383128 24.67827136 32.078125 17.50390625 C28.08236809 14.61224006 23.57088534 12.79363855 19 11 C19.66 10.34 20.32 9.68 21 9 C20.67 8.01 20.34 7.02 20 6 C20 5.34 20 4.68 20 4 C19.34 4.165 18.68 4.33 18 4.5 C14.26900206 5.12183299 10.78126622 5.06408926 7 5 C7.66 4.34 8.32 3.68 9 3 C9.99 3 10.98 3 12 3 C12 2.34 12 1.68 12 1 C8.04 1 4.08 1 0 1 C0 0.67 0 0.34 0 0 Z " fill="#CB8C6D" transform="translate(92,22)"/>
<path d="M0 0 C0.99 0 1.98 0 3 0 C2.67 1.98 2.34 3.96 2 6 C4.8424854 7.57273568 4.8424854 7.57273568 8 8 C7.83846436 8.5554248 7.67692871 9.11084961 7.51049805 9.68310547 C6.53871752 14.09352977 6.81534687 18.62694411 6.8125 23.125 C6.80025391 24.12015625 6.78800781 25.1153125 6.77539062 26.140625 C6.7640258 31.94426134 7.24439182 37.20501977 8.66674805 42.83935547 C9.03151734 45.2043432 8.73306134 46.74210692 8 49 C8.66 49.33 9.32 49.66 10 50 C9.67 50.66 9.34 51.32 9 52 C7.35 51.67 5.7 51.34 4 51 C4 50.34 4 49.68 4 49 C3.34 48.67 2.68 48.34 2 48 C0.42451317 45.37418862 0 44.12900213 0 41 C-0.66 41 -1.32 41 -2 41 C-5.85851195 26.97844317 -4.80426369 13.53343923 0 0 Z " fill="#D69B7D" transform="translate(38,66)"/>
<path d="M0 0 C0.77923828 0.00902344 1.55847656 0.01804687 2.36132812 0.02734375 C4.26185447 0.05066309 6.16222008 0.08652414 8.0625 0.125 C8.0625 0.785 8.0625 1.445 8.0625 2.125 C7.7325 2.455 7.4025 2.785 7.0625 3.125 C11.71302872 3.39432521 11.71302872 3.39432521 16.0625 2.125 C16.7225 2.785 17.3825 3.445 18.0625 4.125 C17.7325 4.785 17.4025 5.445 17.0625 6.125 C17.5575 7.61 17.5575 7.61 18.0625 9.125 C17.36801758 9.1343457 16.67353516 9.14369141 15.95800781 9.15332031 C-4.1639142 8.91949272 -4.1639142 8.91949272 -22.375 16.375 C-25.20833713 18.30996194 -26.58251914 18.51970363 -29.9375 18.125 C-29.9375 16.805 -29.9375 15.485 -29.9375 14.125 C-29.2775 14.125 -28.6175 14.125 -27.9375 14.125 C-27.9375 12.145 -27.9375 10.165 -27.9375 8.125 C-26.08735947 7.15891677 -24.23216527 6.2025093 -22.375 5.25 C-21.34246094 4.71632813 -20.30992188 4.18265625 -19.24609375 3.6328125 C-12.69062276 0.64531332 -7.08273003 -0.15779861 0 0 Z " fill="#ECBCA3" transform="translate(95.9375,22.875)"/>
<path d="M0 0 C0.33 0 0.66 0 1 0 C1.33 1.32 1.66 2.64 2 4 C2.391875 3.484375 2.78375 2.96875 3.1875 2.4375 C3.785625 1.963125 4.38375 1.48875 5 1 C7.6875 1.3125 7.6875 1.3125 10 2 C10.48419922 10.23138673 9.37377429 19.49846211 5.1875 26.75 C2.50982125 29.50418386 0.7813822 29.82811899 -3 30 C-2.68289062 28.9171875 -2.36578125 27.834375 -2.0390625 26.71875 C-0.69675592 21.34952368 -0.54858069 16.01118685 -0.375 10.5 C-0.33632812 9.48679687 -0.29765625 8.47359375 -0.2578125 7.4296875 C-0.16436381 4.95329716 -0.07860127 2.47689849 0 0 Z " fill="#CA8969" transform="translate(136,60)"/>
<path d="M0 0 C2 3 2 3 2 6 C2.66 6.33 3.32 6.66 4 7 C4.33 7.99 4.66 8.98 5 10 C6.65 10 8.3 10 10 10 C9.67 9.67 9.34 9.34 9 9 C8.67 8.34 8.34 7.68 8 7 C8.33 6.01 8.66 5.02 9 4 C9.66 4 10.32 4 11 4 C11.33773437 4.68707031 11.67546875 5.37414062 12.0234375 6.08203125 C12.46945313 6.98308594 12.91546875 7.88414063 13.375 8.8125 C13.81585938 9.70582031 14.25671875 10.59914063 14.7109375 11.51953125 C16.01866905 14.14556381 16.01866905 14.14556381 18 17 C18.125 19.6875 18.125 19.6875 18 22 C18.66 22 19.32 22 20 22 C19.6875 24.875 19.6875 24.875 19 28 C18.01 28.66 17.02 29.32 16 30 C8.60505524 23.0559665 2.84296879 13.7727052 0 4 C0 2.68 0 1.36 0 0 Z " fill="#C27C59" transform="translate(37,107)"/>
<path d="M0 0 C1.98 1.32 3.96 2.64 6 4 C6.33 3.01 6.66 2.02 7 1 C7.99 1.66 8.98 2.32 10 3 C9.54109375 3.67804687 9.0821875 4.35609375 8.609375 5.0546875 C4.5827564 11.16228966 1.4126733 17.09166217 -1 24 C-1.66 24 -2.32 24 -3 24 C-3.33 24.66 -3.66 25.32 -4 26 C-4 25.34 -4 24.68 -4 24 C-5.32 23.34 -6.64 22.68 -8 22 C-7.814375 21.2575 -7.62875 20.515 -7.4375 19.75 C-6.78397852 17.11876968 -6.78397852 17.11876968 -7.68359375 15.21484375 C-8.18292245 11.71954285 -6.43651434 9.75173572 -4.625 6.8125 C-3.97789063 5.74644531 -3.33078125 4.68039063 -2.6640625 3.58203125 C-1 1 -1 1 0 0 Z " fill="#E4B196" transform="translate(47,50)"/>
<path d="M0 0 C0.33 0 0.66 0 1 0 C1.05841253 3.54159657 1.09373452 7.08306793 1.125 10.625 C1.15013672 12.12353516 1.15013672 12.12353516 1.17578125 13.65234375 C1.21014246 18.84088709 1.10254937 23.14923649 -1 28 C-2.98 27.67 -4.96 27.34 -7 27 C-8.10102642 18.64399592 -8.10094304 10.41192037 -8 2 C-7.01 2 -6.02 2 -5 2 C-4.01 1.67 -3.02 1.34 -2 1 C-2 1.99 -2 2.98 -2 4 C-1.34 4 -0.68 4 0 4 C0 2.68 0 1.36 0 0 Z " fill="#BB704B" transform="translate(100,124)"/>
<path d="M0 0 C0.33 0 0.66 0 1 0 C1 15.84 1 31.68 1 48 C-8 48 -8 48 -12.5 47 C-13.78390625 46.7215625 -13.78390625 46.7215625 -15.09375 46.4375 C-15.7228125 46.293125 -16.351875 46.14875 -17 46 C-16.51917969 45.39671875 -16.03835937 44.7934375 -15.54296875 44.171875 C-13.82205451 41.74952482 -13.4047532 39.91422303 -13 37 C-12.01 37 -11.02 37 -10 37 C-9.505 34.03 -9.505 34.03 -9 31 C-7.14223235 34.13498292 -6.79859524 36.37471432 -7 40 C-5.68 40.33 -4.36 40.66 -3 41 C-0.83309511 36.60156324 -0.6588851 32.44664944 -0.5859375 27.63671875 C-0.56657135 26.84473587 -0.5472052 26.05275299 -0.5272522 25.23677063 C-0.46772768 22.72045481 -0.42118042 20.20409256 -0.375 17.6875 C-0.33679519 15.9758921 -0.29774201 14.26430291 -0.2578125 12.55273438 C-0.1620487 8.36864251 -0.0779182 4.18446069 0 0 Z " fill="#A76646" transform="translate(101,110)"/>
<path d="M0 0 C11.25678701 -0.57432587 21.90986726 -0.86298961 32 5 C33.87890625 7.67578125 33.87890625 7.67578125 35 10 C31.25 12 31.25 12 29 12 C29 12.66 29 13.32 29 14 C25.44219804 13.39009109 22.3171411 12.4216319 19 11 C19.66 10.34 20.32 9.68 21 9 C20.67 8.01 20.34 7.02 20 6 C20 5.34 20 4.68 20 4 C19.34 4.165 18.68 4.33 18 4.5 C14.26900206 5.12183299 10.78126622 5.06408926 7 5 C7.66 4.34 8.32 3.68 9 3 C9.99 3 10.98 3 12 3 C12 2.34 12 1.68 12 1 C8.04 1 4.08 1 0 1 C0 0.67 0 0.34 0 0 Z " fill="#D6A48B" transform="translate(92,22)"/>
<path d="M0 0 C8.23905109 5.23083942 8.23905109 5.23083942 9.375 9.8125 C9.58125 10.864375 9.7875 11.91625 10 13 C10.66 13.33 11.32 13.66 12 14 C12 14.99 12 15.98 12 17 C11.34 17 10.68 17 10 17 C10 17.66 10 18.32 10 19 C5.37909927 18.53382063 3.45565397 16.89776525 0.3125 13.5625 C-0.45449219 12.75941406 -1.22148438 11.95632812 -2.01171875 11.12890625 C-2.66785156 10.42636719 -3.32398437 9.72382812 -4 9 C-4.66 8.34 -5.32 7.68 -6 7 C-3.94766315 4.7522025 -2.99332739 3.9977758 0 3 C0 2.01 0 1.02 0 0 Z " fill="#D49C80" transform="translate(126,29)"/>
<path d="M0 0 C0.66 0 1.32 0 2 0 C2.680625 0.7115625 2.680625 0.7115625 3.375 1.4375 C5.28754094 3.27648167 6.38461501 3.68298364 9 4 C11.18703385 3.62092718 11.18703385 3.62092718 13 3 C13.33 3.66 13.66 4.32 14 5 C6.00373897 9.29428833 -1.79091134 12.60059274 -11 12 C-11 15.63 -11 19.26 -11 23 C-12.98 23.99 -12.98 23.99 -15 25 C-14.34 23.68 -13.68 22.36 -13 21 C-13.99 20.34 -14.98 19.68 -16 19 C-15.01 18.01 -14.02 17.02 -13 16 C-13.33 15.01 -13.66 14.02 -14 13 C-13.67 12.01 -13.34 11.02 -13 10 C-9.9375 8.8125 -9.9375 8.8125 -7 8 C-6.01 9.485 -6.01 9.485 -5 11 C-5.66 9.35 -6.32 7.7 -7 6 C-4.42786866 4.38050989 -3.32330841 3.95591249 -0.25 4.375 C0.4925 4.58125 1.235 4.7875 2 5 C1.34 3.35 0.68 1.7 0 0 Z " fill="#BA7553" transform="translate(112,98)"/>
<path d="M0 0 C0.99 0 1.98 0 3 0 C2.67 1.98 2.34 3.96 2 6 C4.8424854 7.57273568 4.8424854 7.57273568 8 8 C7.84152588 8.5662207 7.68305176 9.13244141 7.51977539 9.71582031 C6.99214152 12.0345345 6.795844 14.17358397 6.68359375 16.546875 C6.64169922 17.39121094 6.59980469 18.23554687 6.55664062 19.10546875 C6.51732422 19.97816406 6.47800781 20.85085937 6.4375 21.75 C6.39431641 22.63816406 6.35113281 23.52632812 6.30664062 24.44140625 C6.20086385 26.62745963 6.09877454 28.81362089 6 31 C4.68 30.67 3.36 30.34 2 30 C1.67 28.68 1.34 27.36 1 26 C1.99 25.34 2.98 24.68 4 24 C4.44144243 21.47305748 4.44144243 21.47305748 4.3125 18.625 C4.30669922 17.19027344 4.30669922 17.19027344 4.30078125 15.7265625 C4.00100077 13.00907193 3.38578659 11.32988821 2 9 C2 9.99 2 10.98 2 12 C1.67 12.33 1.34 12.66 1 13 C1.33 13.66 1.66 14.32 2 15 C1.01 15 0.02 15 -1 15 C-2.4807848 17.9615696 -2.35314037 20.83506295 -2.5625 24.125 C-2.64628906 25.40632813 -2.73007812 26.68765625 -2.81640625 28.0078125 C-2.90728516 29.48894531 -2.90728516 29.48894531 -3 31 C-3.33 31 -3.66 31 -4 31 C-4.48756345 19.81312756 -3.78551812 10.66366935 0 0 Z " fill="#D29B7E" transform="translate(38,66)"/>
<path d="M0 0 C2 3 2 3 2 6 C2.66 6.33 3.32 6.66 4 7 C4.33 7.99 4.66 8.98 5 10 C6.65 10 8.3 10 10 10 C9.67 9.67 9.34 9.34 9 9 C8.67 8.34 8.34 7.68 8 7 C8.33 6.01 8.66 5.02 9 4 C9.66 4 10.32 4 11 4 C12.625 7.3125 12.625 7.3125 14 11 C12.18705073 13.7194239 10.33524782 15.74259377 8 18 C10.475 18.99 10.475 18.99 13 20 C12.67 21.65 12.34 23.3 12 25 C5.93013866 17.99631384 0 9.50932406 0 0 Z " fill="#BD7A58" transform="translate(37,107)"/>
<path d="M0 0 C0 3.3 0 6.6 0 10 C-0.99 9.67 -1.98 9.34 -3 9 C-5.30336625 9.31052686 -5.30336625 9.31052686 -7.6875 9.9375 C-8.89986328 10.22947266 -8.89986328 10.22947266 -10.13671875 10.52734375 C-10.75160156 10.68332031 -11.36648437 10.83929688 -12 11 C-12 10.34 -12 9.68 -12 9 C-12.66 8.67 -13.32 8.34 -14 8 C-12.35 7.67 -10.7 7.34 -9 7 C-9 6.34 -9 5.68 -9 5 C-9.99 4.67 -10.98 4.34 -12 4 C-10.75539217 3.32332002 -9.50403104 2.65905281 -8.25 2 C-7.55390625 1.62875 -6.8578125 1.2575 -6.140625 0.875 C-4 0 -4 0 0 0 Z " fill="#BE7957" transform="translate(102,70)"/>
<path d="M0 0 C2.26442549 3.92500418 3.39461862 7.85778465 2.5625 12.375 C2.376875 12.91125 2.19125 13.4475 2 14 C2.66 14.33 3.32 14.66 4 15 C3.67 15.66 3.34 16.32 3 17 C1.35 16.67 -0.3 16.34 -2 16 C-2 15.34 -2 14.68 -2 14 C-2.66 13.67 -3.32 13.34 -4 13 C-5.36795216 10.91207302 -6.01856599 9.57554582 -5.9375 7.0625 C-4.57618896 4.06761571 -2.39327587 2.20917772 0 0 Z " fill="#CC8969" transform="translate(44,101)"/>
<path d="M0 0 C1.98 1.32 3.96 2.64 6 4 C6.33 3.01 6.66 2.02 7 1 C7.99 1.66 8.98 2.32 10 3 C9.51789062 3.73605469 9.03578125 4.47210938 8.5390625 5.23046875 C7.90742187 6.20628906 7.27578125 7.18210937 6.625 8.1875 C5.99851562 9.15042969 5.37203125 10.11335938 4.7265625 11.10546875 C3.18011688 13.69803936 2.02491925 16.16853116 1 19 C-3 14.5 -3 14.5 -3 10 C-2.01 10 -1.02 10 0 10 C0 8.68 0 7.36 0 6 C0 5.67 0 5.34 0 5 C-0.66 4.67 -1.32 4.34 -2 4 C-1.34 2.68 -0.68 1.36 0 0 Z " fill="#DBA286" transform="translate(47,50)"/>
<path d="M0 0 C2.8086289 2.8086289 2.72711179 5.11134294 3 9 C2.01 10.485 2.01 10.485 1 12 C1.33 12.99 1.66 13.98 2 15 C2.66 15 3.32 15 4 15 C4 13.35 4 11.7 4 10 C4.66 10 5.32 10 6 10 C5.85892253 11.45880109 5.71197585 12.91703551 5.5625 14.375 C5.48128906 15.18710938 5.40007812 15.99921875 5.31640625 16.8359375 C5 19 5 19 4 21 C2.02 20.67 0.04 20.34 -2 20 C-2.22226864 18.23086176 -2.42733873 16.45955629 -2.625 14.6875 C-2.74101563 13.70136719 -2.85703125 12.71523437 -2.9765625 11.69921875 C-3 9 -3 9 -1 6 C-0.9603287 4.33380554 -0.95615553 2.66608987 -1 1 C-0.67 0.67 -0.34 0.34 0 0 Z " fill="#C57B56" transform="translate(95,131)"/>
<path d="M0 0 C1.32 0 2.64 0 4 0 C4 0.66 4 1.32 4 2 C3.01 2.66 2.02 3.32 1 4 C1 4.66 1 5.32 1 6 C5.95 4.515 5.95 4.515 11 3 C11 3.66 11 4.32 11 5 C8.35190504 6.54472206 5.90873112 7.26214938 2.9375 7.875 C0.19839169 8.53299809 -0.86362839 8.87641323 -3 10.8125 C-4.17207116 13.37640566 -4.23239769 15.21122775 -4 18 C-4.66 18 -5.32 18 -6 18 C-6.54353795 11.34166014 -5.8282346 7.51716162 -2 2 C-1.34 1.34 -0.68 0.68 0 0 Z " fill="#CD9072" transform="translate(89,75)"/>
<path d="M0 0 C0.33 0 0.66 0 1 0 C2.11658501 4.68965706 1.80619523 7.53763531 0 12 C1.65 12 3.3 12 5 12 C4.34 13.32 3.68 14.64 3 16 C-1.18001995 16.08196118 -4.92212105 15.89445704 -9 15 C-8.60167969 14.41992188 -8.20335938 13.83984375 -7.79296875 13.2421875 C-4.87248393 8.9360712 -2.18115554 4.725837 0 0 Z " fill="#BC7754" transform="translate(134,77)"/>
<path d="M0 0 C0.99 0.33 1.98 0.66 3 1 C2.34 1 1.68 1 1 1 C0.67 3.31 0.34 5.62 0 8 C-4.41062136 9.0257259 -6.92630576 9.03684712 -11 7 C-11 5.68 -11 4.36 -11 3 C-10.34 3 -9.68 3 -9 3 C-9 2.34 -9 1.68 -9 1 C-6.03 1.33 -3.06 1.66 0 2 C0 1.34 0 0.68 0 0 Z " fill="#F7CBB4" transform="translate(94,24)"/>
<path d="M0 0 C2 1 2 1 4 4 C3.96856707 6.73990408 3.44521663 9.28417854 3 12 C2.34 12 1.68 12 1 12 C1 12.99 1 13.98 1 15 C-0.32 15 -1.64 15 -3 15 C-3.33 15.66 -3.66 16.32 -4 17 C-4 14.03 -4 11.06 -4 8 C-2.35 7.67 -0.7 7.34 1 7 C0.34 6.67 -0.32 6.34 -1 6 C-0.67 4.02 -0.34 2.04 0 0 Z " fill="#EDB79B" transform="translate(39,74)"/>
<path d="M0 0 C2.97 0.495 2.97 0.495 6 1 C5.67 1.99 5.34 2.98 5 4 C5.66 4 6.32 4 7 4 C6.67 6.31 6.34 8.62 6 11 C5.34 11 4.68 11 4 11 C3.67 10.34 3.34 9.68 3 9 C1.02 9.99 1.02 9.99 -1 11 C-2.38550197 8.22899606 -2.1877467 6.0665294 -2 3 C-1.34 2.01 -0.68 1.02 0 0 Z " fill="#C8815D" transform="translate(94,117)"/>
<path d="M0 0 C-0.33 1.65 -0.66 3.3 -1 5 C-1.66 5 -2.32 5 -3 5 C-2.01 6.485 -2.01 6.485 -1 8 C-1 8.99 -1 9.98 -1 11 C-3.5 12.6875 -3.5 12.6875 -6 14 C-6.66 13.34 -7.32 12.68 -8 12 C-7.01 12 -6.02 12 -5 12 C-5.66 10.02 -6.32 8.04 -7 6 C-8.32 6.33 -9.64 6.66 -11 7 C-4.18421053 0 -4.18421053 0 0 0 Z " fill="#DDA98F" transform="translate(69,32)"/>
<path d="M0 0 C0.33 0 0.66 0 1 0 C1 1.98 1 3.96 1 6 C-0.98 6.99 -0.98 6.99 -3 8 C-2.34 9.65 -1.68 11.3 -1 13 C-1.66 13.66 -2.32 14.32 -3 15 C-5.125 14.625 -5.125 14.625 -7 14 C-7.125 7.25 -7.125 7.25 -6 5 C-4.68 5 -3.36 5 -2 5 C-2 4.01 -2 3.02 -2 2 C-1.34 2 -0.68 2 0 2 C0 1.34 0 0.68 0 0 Z " fill="#E0A88B" transform="translate(42,84)"/>
<path d="M0 0 C2.31 1.65 4.62 3.3 7 5 C5 7 5 7 2 8 C2.66 8.66 3.32 9.32 4 10 C3.01 10.495 3.01 10.495 2 11 C1.34 10.67 0.68 10.34 0 10 C-0.33 10.66 -0.66 11.32 -1 12 C-2.65 10.35 -4.3 8.7 -6 7 C-3.94766315 4.7522025 -2.99332739 3.9977758 0 3 C0 2.01 0 1.02 0 0 Z " fill="#C78A6C" transform="translate(126,29)"/>
<path d="M0 0 C0.66 0.33 1.32 0.66 2 1 C1.67 1.66 1.34 2.32 1 3 C0.69208131 5.33077343 0.49104726 7.66241896 0.28125 10.00390625 C0 12 0 12 -1 13 C-2.99958364 13.04080783 -5.00045254 13.04254356 -7 13 C-6.67 10.36 -6.34 7.72 -6 5 C-5.34 5 -4.68 5 -4 5 C-4 4.34 -4 3.68 -4 3 C-3.01 2.67 -2.02 2.34 -1 2 C-0.67 1.34 -0.34 0.68 0 0 Z " fill="#CE9273" transform="translate(92,83)"/>
<path d="M0 0 C0.23053497 2.84326464 0.35903101 4.46145349 -1.25 6.875 C-3 8 -3 8 -5 7.875 C-7.20700414 6.90943569 -8.42932829 5.80627247 -10 4 C-9.67 3.34 -9.34 2.68 -9 2 C-8.34 2.33 -7.68 2.66 -7 3 C-7 2.01 -7 1.02 -7 0 C-4.3333581 -1.33332095 -2.83319697 -0.67102033 0 0 Z " fill="#C07550" transform="translate(88,147)"/>
<path d="M0 0 C1.85776765 3.13498292 2.20140476 5.37471432 2 9 C2.99 9.33 3.98 9.66 5 10 C3.68 10.99 2.36 11.98 1 13 C0.67 12.34 0.34 11.68 0 11 C-0.99 11.33 -1.98 11.66 -3 12 C-4 11 -4 11 -4.0625 8.4375 C-4.041875 7.633125 -4.02125 6.82875 -4 6 C-3.01 6 -2.02 6 -1 6 C-0.67 4.02 -0.34 2.04 0 0 Z M-5 11 C-4.34 12.32 -3.68 13.64 -3 15 C-3.99 15.495 -3.99 15.495 -5 16 C-5.99 15.34 -6.98 14.68 -8 14 C-7.01 13.01 -6.02 12.02 -5 11 Z " fill="#B26B48" transform="translate(92,141)"/>
<path d="M0 0 C0.99 0.33 1.98 0.66 3 1 C2.67 3.64 2.34 6.28 2 9 C1.34 9 0.68 9 0 9 C-0.33 9.66 -0.66 10.32 -1 11 C-1 10.34 -1 9.68 -1 9 C-2.32 8.34 -3.64 7.68 -5 7 C-4.42655063 4.13275314 -4.1385485 3.1385485 -2 1 C-1.34 1 -0.68 1 0 1 C0 0.67 0 0.34 0 0 Z " fill="#E8B499" transform="translate(44,65)"/>
<path d="M0 0 C0 0.99 0 1.98 0 3 C-1.32 2.67 -2.64 2.34 -4 2 C-4.33 2.66 -4.66 3.32 -5 4 C-5 3.34 -5 2.68 -5 2 C-5.66 2 -6.32 2 -7 2 C-7.66 3.98 -8.32 5.96 -9 8 C-7.35 8 -5.7 8 -4 8 C-4.33 8.99 -4.66 9.98 -5 11 C-6.65 11.33 -8.3 11.66 -10 12 C-10.66 8.7 -11.32 5.4 -12 2 C-7.8803623 0.70756464 -4.33168317 -0.26252625 0 0 Z " fill="#D19D82" transform="translate(92,23)"/>
<path d="M0 0 C0.66 0 1.32 0 2 0 C2.45375 0.474375 2.9075 0.94875 3.375 1.4375 C5.28754094 3.27648167 6.38461501 3.68298364 9 4 C11.18703385 3.62092718 11.18703385 3.62092718 13 3 C13.33 3.66 13.66 4.32 14 5 C12.73308493 5.67408308 11.46129251 6.33900497 10.1875 7 C9.47980469 7.37125 8.77210937 7.7425 8.04296875 8.125 C6 9 6 9 3 9 C2.01 6.03 1.02 3.06 0 0 Z " fill="#B8724F" transform="translate(112,98)"/>
<path d="M0 0 C1.67542976 0.28604898 3.34385343 0.61781233 5 1 C4.484375 1.4125 3.96875 1.825 3.4375 2.25 C2.963125 2.8275 2.48875 3.405 2 4 C2.22757731 6.16299211 2.22757731 6.16299211 3 8 C2.01 7.67 1.02 7.34 0 7 C-0.99 7 -1.98 7 -3 7 C-3.66 7 -4.32 7 -5 7 C-5 7.66 -5 8.32 -5 9 C-6.32 8.34 -7.64 7.68 -9 7 C-7.625 5.5 -7.625 5.5 -6 4 C-5.34 4 -4.68 4 -4 4 C-3.67 3.01 -3.34 2.02 -3 1 C-2.67 1.99 -2.34 2.98 -2 4 C-1.34 4 -0.68 4 0 4 C-0.33 3.01 -0.66 2.02 -1 1 C-0.67 0.67 -0.34 0.34 0 0 Z " fill="#D59373" transform="translate(104,101)"/>
<path d="M0 0 C0.33 0.66 0.66 1.32 1 2 C1.66 2 2.32 2 3 2 C3.33 2.99 3.66 3.98 4 5 C3.34 5 2.68 5 2 5 C1.67 5.99 1.34 6.98 1 8 C-3.33333333 11 -3.33333333 11 -6 11 C-6.33 10.01 -6.66 9.02 -7 8 C-6.0409375 7.6596875 -6.0409375 7.6596875 -5.0625 7.3125 C-2.72567164 6.15983399 -2.72567164 6.15983399 -2.375 3.4375 C-2.189375 2.2309375 -2.189375 2.2309375 -2 1 C-1.34 0.67 -0.68 0.34 0 0 Z " fill="#E6B197" transform="translate(75,30)"/>
<path d="M0 0 C-1.28299758 2.86207152 -2.530636 5.0245088 -5 7 C-5.99 7 -6.98 7 -8 7 C-8 5.68 -8 4.36 -8 3 C-8.66 3 -9.32 3 -10 3 C-9.67 2.01 -9.34 1.02 -9 0 C-5.93109813 -1.53445094 -3.29905734 -0.54984289 0 0 Z " fill="#C47C58" transform="translate(136,92)"/>
<path d="M0 0 C1.32 0 2.64 0 4 0 C4 3.3 4 6.6 4 10 C3.01 9.67 2.02 9.34 1 9 C0.01 9.33 -0.98 9.66 -2 10 C-2.66 9.67 -3.32 9.34 -4 9 C-4 7.02 -4 5.04 -4 3 C-2.68 3.33 -1.36 3.66 0 4 C0 4.66 0 5.32 0 6 C0.66 6 1.32 6 2 6 C2.33 4.35 2.66 2.7 3 1 C2.01 0.67 1.02 0.34 0 0 Z " fill="#AF775B" transform="translate(98,70)"/>
<path d="M0 0 C3.81300782 3.2870757 5.22972246 6.39727838 7 11 C5.35 10.67 3.7 10.34 2 10 C2 10.66 2 11.32 2 12 C1.01 12 0.02 12 -1 12 C-1.33 12.99 -1.66 13.98 -2 15 C-2.66 13.35 -3.32 11.7 -4 10 C-1.525 10.495 -1.525 10.495 1 11 C1 10.34 1 9.68 1 9 C1.66 9 2.32 9 3 9 C2.16666667 6.83333333 2.16666667 6.83333333 0 6 C0 4.02 0 2.04 0 0 Z " fill="#BA7F62" transform="translate(135,37)"/>
<path d="M0 0 C1.65 0.33 3.3 0.66 5 1 C4.01 1.495 4.01 1.495 3 2 C3.66 2.33 4.32 2.66 5 3 C5 3.66 5 4.32 5 5 C4.01 5 3.02 5 2 5 C0.5192152 7.9615696 0.64685963 10.83506295 0.4375 14.125 C0.35371094 15.40632813 0.26992188 16.68765625 0.18359375 18.0078125 C0.09271484 19.48894531 0.09271484 19.48894531 0 21 C-0.33 21 -0.66 21 -1 21 C-1.0270203 18.24993392 -1.04684883 15.50013454 -1.0625 12.75 C-1.07087891 11.97269531 -1.07925781 11.19539063 -1.08789062 10.39453125 C-1.09111328 9.64042969 -1.09433594 8.88632813 -1.09765625 8.109375 C-1.10289307 7.41811523 -1.10812988 6.72685547 -1.11352539 6.01464844 C-0.99437971 3.90026102 -0.57618237 2.03358485 0 0 Z " fill="#B08067" transform="translate(35,76)"/>
<path d="M0 0 C0.33 0.66 0.66 1.32 1 2 C1.66 2 2.32 2 3 2 C3.33 3.65 3.66 5.3 4 7 C1.03 7 -1.94 7 -5 7 C-5 5.68 -5 4.36 -5 3 C-4.01 3 -3.02 3 -2 3 C-2 2.34 -2 1.68 -2 1 C-1.34 0.67 -0.68 0.34 0 0 Z " fill="#D79D80" transform="translate(139,46)"/>
<path d="M0 0 C2.61020066 2.61020066 2.63751674 4.37516738 3 8 C2.5625 10.375 2.5625 10.375 2 12 C2.66 12.33 3.32 12.66 4 13 C3.67 13.66 3.34 14.32 3 15 C1.35 14.67 -0.3 14.34 -2 14 C-1.34 13.67 -0.68 13.34 0 13 C0 11.35 0 9.7 0 8 C-0.66 7.67 -1.32 7.34 -2 7 C-2 6.01 -2 5.02 -2 4 C-1.34 4 -0.68 4 0 4 C-0.33 3.01 -0.66 2.02 -1 1 C-0.67 0.67 -0.34 0.34 0 0 Z " fill="#D99E80" transform="translate(44,103)"/>
<path d="M0 0 C1.65 0 3.3 0 5 0 C5.25 2.3125 5.25 2.3125 5 5 C3.0625 6.6875 3.0625 6.6875 1 8 C0.67 8.66 0.34 9.32 0 10 C-0.66 10 -1.32 10 -2 10 C-2 8.68 -2 7.36 -2 6 C-1.34 6 -0.68 6 0 6 C0 4.02 0 2.04 0 0 Z " fill="#F3C4AD" transform="translate(68,31)"/>
<path d="M0 0 C1.65 0.33 3.3 0.66 5 1 C5.33 1.99 5.66 2.98 6 4 C5.01 5.485 5.01 5.485 4 7 C2.68 7 1.36 7 0 7 C-0.99 7.495 -0.99 7.495 -2 8 C-1.34 5.36 -0.68 2.72 0 0 Z " fill="#C17955" transform="translate(63,136)"/>
<path d="M0 0 C0.66 1.32 1.32 2.64 2 4 C1.34 4.66 0.68 5.32 0 6 C-0.144375 6.680625 -0.28875 7.36125 -0.4375 8.0625 C-0.7159375 9.0215625 -0.7159375 9.0215625 -1 10 C-1.99 10.33 -2.98 10.66 -4 11 C-4.66 10.01 -5.32 9.02 -6 8 C-5.3125 5.375 -5.3125 5.375 -4 3 C-3.01 2.67 -2.02 2.34 -1 2 C-0.67 1.34 -0.34 0.68 0 0 Z " fill="#B8704D" transform="translate(92,93)"/>
<path d="M0 0 C0.66 0.33 1.32 0.66 2 1 C3.27536232 6.44927536 3.27536232 6.44927536 2 9 C-1.0625 9.625 -1.0625 9.625 -4 10 C-4 9.34 -4 8.68 -4 8 C-3.01 8 -2.02 8 -1 8 C-1.66 6.02 -2.32 4.04 -3 2 C-2.01 1.34 -1.02 0.68 0 0 Z " fill="#F3C4AB" transform="translate(61,37)"/>
<path d="M0 0 C0.33 0 0.66 0 1 0 C1 4.62 1 9.24 1 14 C0.01 14.495 0.01 14.495 -1 15 C-1.36256858 13.5437328 -1.71479793 12.08488815 -2.0625 10.625 C-2.35833984 9.40683594 -2.35833984 9.40683594 -2.66015625 8.1640625 C-3 6 -3 6 -2 4 C-1.34 4 -0.68 4 0 4 C0 2.68 0 1.36 0 0 Z " fill="#C37853" transform="translate(100,124)"/>
<path d="M0 0 C1.32 1.32 2.64 2.64 4 4 C3.34 4 2.68 4 2 4 C1.34 6.64 0.68 9.28 0 12 C-1.65 10.68 -3.3 9.36 -5 8 C-4.0409375 7.690625 -4.0409375 7.690625 -3.0625 7.375 C-0.65074923 6.10461791 -0.65074923 6.10461791 -0.25 2.875 C-0.1675 1.92625 -0.085 0.9775 0 0 Z " fill="#AD6845" transform="translate(61,132)"/>
<path d="M0 0 C0.33 0.99 0.66 1.98 1 3 C2.65 3.33 4.3 3.66 6 4 C4.75 5.5625 4.75 5.5625 3 7 C0.9375 6.625 0.9375 6.625 -1 6 C-1.99 6.495 -1.99 6.495 -3 7 C-3.33 5.35 -3.66 3.7 -4 2 C-2.68 1.34 -1.36 0.68 0 0 Z " fill="#C68361" transform="translate(118,96)"/>
<path d="M0 0 C0.66 0.99 1.32 1.98 2 3 C1.34 3 0.68 3 0 3 C0.33 4.32 0.66 5.64 1 7 C-0.98 7.33 -2.96 7.66 -5 8 C-4.1875 4.5625 -4.1875 4.5625 -3 1 C-2.01 0.67 -1.02 0.34 0 0 Z " fill="#D18B69" transform="translate(138,82)"/>
<path d="M0 0 C2.5654594 2.5654594 2.54046087 4.47686668 3 8 C2.01 8 1.02 8 0 8 C0 7.34 0 6.68 0 6 C-1.97536745 6.34786708 -1.97536745 6.34786708 -4 7 C-4.33 7.66 -4.66 8.32 -5 9 C-5 7.02 -5 5.04 -5 3 C-3.35 3 -1.7 3 0 3 C0 2.01 0 1.02 0 0 Z " fill="#B77757" transform="translate(142,49)"/>
<path d="M0 0 C1.65 0 3.3 0 5 0 C5 0.66 5 1.32 5 2 C5.66 2 6.32 2 7 2 C7 2.66 7 3.32 7 4 C1.39 4 -4.22 4 -10 4 C-10 3.67 -10 3.34 -10 3 C-6.7 2.67 -3.4 2.34 0 2 C0 1.34 0 0.68 0 0 Z " fill="#B9927E" transform="translate(104,28)"/>
<path d="M0 0 C-0.66 1.32 -1.32 2.64 -2 4 C-4.97 3.01 -7.94 2.02 -11 1 C-6.68398307 -1.87734462 -4.56105874 -2.76921423 0 0 Z " fill="#CB977D" transform="translate(122,32)"/>
<path d="M0 0 C0.66 0 1.32 0 2 0 C2 1.65 2 3.3 2 5 C0.5459375 5.433125 0.5459375 5.433125 -0.9375 5.875 C-4.10664203 6.64214682 -4.10664203 6.64214682 -5 9 C-4.34 9.33 -3.68 9.66 -3 10 C-3.99 10.33 -4.98 10.66 -6 11 C-6.20140476 7.37471432 -5.85776765 5.13498292 -4 2 C-3.01 2 -2.02 2 -1 2 C-0.67 1.34 -0.34 0.68 0 0 Z " fill="#D79C7E" transform="translate(143,57)"/>
<path d="M0 0 C0.99 0.66 1.98 1.32 3 2 C2.67 2.66 2.34 3.32 2 4 C2.33 4.99 2.66 5.98 3 7 C2.01 7 1.02 7 0 7 C0 6.34 0 5.68 0 5 C-0.66 5 -1.32 5 -2 5 C-2 4.34 -2 3.68 -2 3 C-3.32 3.33 -4.64 3.66 -6 4 C-6.33 3.34 -6.66 2.68 -7 2 C-3.6875 0.875 -3.6875 0.875 0 0 Z " fill="#F2C6AE" transform="translate(111,25)"/>
<path d="M0 0 C0.66 0 1.32 0 2 0 C1.67 2.97 1.34 5.94 1 9 C0.67 8.34 0.34 7.68 0 7 C-0.99 7.33 -1.98 7.66 -3 8 C-1.125 1.125 -1.125 1.125 0 0 Z " fill="#CB8765" transform="translate(59,132)"/>
<path d="M0 0 C-0.99 0.33 -1.98 0.66 -3 1 C-3.33 1.99 -3.66 2.98 -4 4 C-4.99 4 -5.98 4 -7 4 C-7 4.66 -7 5.32 -7 6 C-7.99 6.33 -8.98 6.66 -10 7 C-10 4 -10 4 -7.8125 1.8125 C-4.80799236 -0.12373826 -3.4826218 -0.39801392 0 0 Z " fill="#C6805E" transform="translate(95,82)"/>
<path d="M0 0 C0.33 0 0.66 0 1 0 C1 2.64 1 5.28 1 8 C1.66 8 2.32 8 3 8 C3.33 9.32 3.66 10.64 4 12 C3.01 12.495 3.01 12.495 2 13 C1.67 13.99 1.34 14.98 1 16 C0.34 15.67 -0.32 15.34 -1 15 C-0.67 10.05 -0.34 5.1 0 0 Z " fill="#A3694D" transform="translate(136,60)"/>
<path d="M0 0 C2.625 0.375 2.625 0.375 5 1 C5 3.64 5 6.28 5 9 C4.67 8.01 4.34 7.02 4 6 C3.01 6 2.02 6 1 6 C1 5.34 1 4.68 1 4 C0.01 3.34 -0.98 2.68 -2 2 C-1.34 1.34 -0.68 0.68 0 0 Z " fill="#B3775B" transform="translate(141,61)"/>
<path d="M0 0 C0.99 0.33 1.98 0.66 3 1 C2.2575 2.0828125 2.2575 2.0828125 1.5 3.1875 C-0.07919285 6.14848659 -0.28178312 7.71253029 0 11 C-0.66 11 -1.32 11 -2 11 C-2.05399736 9.54207116 -2.09279177 8.08357288 -2.125 6.625 C-2.15980469 5.40683594 -2.15980469 5.40683594 -2.1953125 4.1640625 C-2 2 -2 2 0 0 Z " fill="#D59778" transform="translate(85,82)"/>
<path d="M0 0 C0.33 0 0.66 0 1 0 C2.0257259 4.41062136 2.03684712 6.92630576 0 11 C-1.32 10.34 -2.64 9.68 -4 9 C-2.68 6.03 -1.36 3.06 0 0 Z " fill="#B4704E" transform="translate(134,77)"/>
<path d="M0 0 C0.99 0.66 1.98 1.32 3 2 C1.68 3.32 0.36 4.64 -1 6 C-0.34 6.33 0.32 6.66 1 7 C0.34 7.66 -0.32 8.32 -1 9 C-3 7 -3 7 -3.125 3.875 C-3.08375 2.92625 -3.0425 1.9775 -3 1 C-2.01 0.67 -1.02 0.34 0 0 Z " fill="#C37C59" transform="translate(138,75)"/>
<path d="M0 0 C0.33 0 0.66 0 1 0 C1 3.3 1 6.6 1 10 C-0.32 9.67 -1.64 9.34 -3 9 C-3.33 7.68 -3.66 6.36 -4 5 C-3.01 4.34 -2.02 3.68 -1 3 C-0.67 2.01 -0.34 1.02 0 0 Z " fill="#B47B60" transform="translate(43,87)"/>
<path d="M0 0 C0.66 0 1.32 0 2 0 C2 1.32 2 2.64 2 4 C1.34 4 0.68 4 0 4 C0.33 5.65 0.66 7.3 1 9 C-1.475 8.01 -1.475 8.01 -4 7 C-2.84826645 4.53199953 -1.95216435 2.95216435 0 1 C0 0.67 0 0.34 0 0 Z " fill="#CC8867" transform="translate(49,118)"/>
<path d="M0 0 C1.125 1.75 1.125 1.75 2 4 C1.125 6.25 1.125 6.25 0 8 C-0.33 7.34 -0.66 6.68 -1 6 C-1.66 6 -2.32 6 -3 6 C-3 4.68 -3 3.36 -3 2 C-2.01 1.34 -1.02 0.68 0 0 Z " fill="#B46F4E" transform="translate(122,93)"/>
<path d="M0 0 C0.99 0 1.98 0 3 0 C3.33 0.99 3.66 1.98 4 3 C0.25 5 0.25 5 -2 5 C-2.33 5.66 -2.66 6.32 -3 7 C-3 3.47190093 -2.35723489 2.53184488 0 0 Z " fill="#E9B79E" transform="translate(123,29)"/>
<path d="M0 0 C1.65 0 3.3 0 5 0 C5 1.98 5 3.96 5 6 C4.01 5.67 3.02 5.34 2 5 C2 4.34 2 3.68 2 3 C1.01 2.67 0.02 2.34 -1 2 C-0.67 1.34 -0.34 0.68 0 0 Z " fill="#D29373" transform="translate(96,71)"/>
<path d="M0 0 C0.99 0.99 1.98 1.98 3 3 C3.33 2.34 3.66 1.68 4 1 C4.33 2.32 4.66 3.64 5 5 C2.1875 5.625 2.1875 5.625 -1 6 C-1.99 5.34 -2.98 4.68 -4 4 C-3.01 3.67 -2.02 3.34 -1 3 C-0.67 2.01 -0.34 1.02 0 0 Z " fill="#EEB99D" transform="translate(89,27)"/>
<path d="M0 0 C2.31 0.33 4.62 0.66 7 1 C6.34 2.32 5.68 3.64 5 5 C3.68 5 2.36 5 1 5 C1 4.34 1 3.68 1 3 C0.34 3 -0.32 3 -1 3 C-0.67 2.01 -0.34 1.02 0 0 Z " fill="#CE8E6E" transform="translate(129,91)"/>
<path d="M0 0 C2 1 2 1 4 4 C3.625 6.6875 3.625 6.6875 3 9 C2.34 9 1.68 9 1 9 C-1.09230769 4.56923077 -1.09230769 4.56923077 -0.625 1.6875 C-0.41875 1.130625 -0.2125 0.57375 0 0 Z " fill="#EFBEA4" transform="translate(39,74)"/>
<path d="M0 0 C2 3 2 3 2 6 C2.66 6.33 3.32 6.66 4 7 C5.125 9.0625 5.125 9.0625 6 11 C5.01 11.33 4.02 11.66 3 12 C2.49166409 10.75336669 1.99368855 9.50250613 1.5 8.25 C1.2215625 7.55390625 0.943125 6.8578125 0.65625 6.140625 C0 4 0 4 0 0 Z " fill="#B27354" transform="translate(37,107)"/>
<path d="M0 0 C1.65 0.33 3.3 0.66 5 1 C5.33 2.65 5.66 4.3 6 6 C5.01 6.66 4.02 7.32 3 8 C2 5 2 5 3 2 C2.01 2.33 1.02 2.66 0 3 C0 2.01 0 1.02 0 0 Z " fill="#B87350" transform="translate(91,104)"/>
<path d="M0 0 C0.66 0.33 1.32 0.66 2 1 C2 1.66 2 2.32 2 3 C2.66 3.33 3.32 3.66 4 4 C3.67 4.99 3.34 5.98 3 7 C3 6.34 3 5.68 3 5 C0.69 5 -1.62 5 -4 5 C-4 4.34 -4 3.68 -4 3 C-2.68 2.67 -1.36 2.34 0 2 C0 1.34 0 0.68 0 0 Z " fill="#D59575" transform="translate(93,100)"/>
<path d="M0 0 C2 3 2 3 2 5 C-3.625 7.125 -3.625 7.125 -7 6 C-6.67 5.34 -6.34 4.68 -6 4 C-5.360625 3.855625 -4.72125 3.71125 -4.0625 3.5625 C-1.61789145 3.13834965 -1.61789145 3.13834965 0 0 Z " fill="#CF8E6E" transform="translate(42,94)"/>
<path d="M0 0 C2.475 0.495 2.475 0.495 5 1 C5 2.32 5 3.64 5 5 C5.66 4.67 6.32 4.34 7 4 C6.67 4.99 6.34 5.98 6 7 C5.01 7 4.02 7 3 7 C2.01 4.69 1.02 2.38 0 0 Z " fill="#BD7A59" transform="translate(138,67)"/>
<path d="M0 0 C0.33 1.32 0.66 2.64 1 4 C-1.97 3.67 -4.94 3.34 -8 3 C-5.36657694 0.36657694 -3.69534435 0 0 0 Z " fill="#C8825F" transform="translate(113,99)"/>
<path d="M0 0 C0.33 0.99 0.66 1.98 1 3 C0.34 3 -0.32 3 -1 3 C-1 3.66 -1 4.32 -1 5 C-3.4375 4.625 -3.4375 4.625 -6 4 C-6.33 3.34 -6.66 2.68 -7 2 C-3.86650268 0.95550089 -3.01031744 1.06576355 0 2 C0 1.34 0 0.68 0 0 Z " fill="#E3AE93" transform="translate(137,43)"/>
<path d="M0 0 C0.66 0 1.32 0 2 0 C2 0.66 2 1.32 2 2 C3.65 2 5.3 2 7 2 C6.67 2.99 6.34 3.98 6 5 C4.35 5.33 2.7 5.66 1 6 C0.67 4.02 0.34 2.04 0 0 Z " fill="#D8A88F" transform="translate(81,29)"/>
<path d="M0 0 C0.66 0.66 1.32 1.32 2 2 C1.625 4.125 1.625 4.125 1 6 C-2.875 4.25 -2.875 4.25 -4 2 C-2.68 1.34 -1.36 0.68 0 0 Z " fill="#D3906E" transform="translate(43,110)"/>
<path d="M0 0 C0.99 0 1.98 0 3 0 C2.75 2.875 2.75 2.875 2 6 C-0.0625 7.375 -0.0625 7.375 -2 8 C-1.34 5.36 -0.68 2.72 0 0 Z " fill="#BC876B" transform="translate(38,66)"/>
<path d="M0 0 C0.33 0.99 0.66 1.98 1 3 C3.00016466 4.20882096 3.00016466 4.20882096 5 5 C4.34 5.66 3.68 6.32 3 7 C0.875 6.625 0.875 6.625 -1 6 C-0.67 4.02 -0.34 2.04 0 0 Z " fill="#D5A085" transform="translate(40,61)"/>
<path d="M0 0 C0.99 0.33 1.98 0.66 3 1 C3.6875 3.0625 3.6875 3.0625 4 5 C2.68 5.33 1.36 5.66 0 6 C-1 3 -1 3 0 0 Z " fill="#CA815D" transform="translate(96,110)"/>
<path d="M0 0 C-1.32 1.32 -2.64 2.64 -4 4 C-4.99 3.01 -5.98 2.02 -7 1 C-3.375 -1.125 -3.375 -1.125 0 0 Z " fill="#C07550" transform="translate(112,103)"/>
<path d="M0 0 C1.32 0 2.64 0 4 0 C3.67 1.32 3.34 2.64 3 4 C1.02 4 -0.96 4 -3 4 C-1 1 -1 1 0 0 Z " fill="#DDA081" transform="translate(88,92)"/>
</svg>
