<?xml version="1.0" encoding="UTF-8"?>
<svg id="Layer_2" data-name="Layer 2" xmlns="http://www.w3.org/2000/svg" viewBox="0 0 14.93 14.99">
  <defs>
    <style>
      .cls-1 {
        fill: #2e2d2d;
        fill-rule: evenodd;
      }
    </style>
  </defs>
  <g id="Layer_1-2" data-name="Layer 1">
    <g>
      <path class="cls-1" d="M8.06,8.05c-.53,0-1.15,0-1.76,0v1.81h1.52c.65,0,1.23-.3,1.21-.95-.01-.61-.41-.81-.98-.86Z"/>
      <path class="cls-1" d="M8.48,6.73c.4-.26.51-.79.24-1.19-.06-.1-.15-.18-.24-.24-.72-.16-1.45-.2-2.18-.12v1.66c.73.05,1.46.01,2.18-.11Z"/>
      <path class="cls-1" d="M12.75,2.17h0c-2.91-2.9-7.62-2.89-10.52.02C-.13,4.56-.62,8.23,1.05,11.14l-1.05,3.85,3.94-1.03c1.09.59,2.31.9,3.55.9,4.11,0,7.44-3.33,7.43-7.44,0-1.97-.78-3.86-2.17-5.25ZM8,11.06h-2.59c-.14.02-.27,0-.41-.03-.08-.05-.17-.09-.16-.36,0-1.33,0-4.4,0-5.53,0-.72-.1-1.18.53-1.18,1.68,0,4.15-.32,4.72,1.08.35.86.12,1.84-.56,2.46,1.4.39,1.48,3.55-1.52,3.55Z"/>
    </g>
  </g>
</svg>